<svg xmlns="http://www.w3.org/2000/svg" xmlns:xlink="http://www.w3.org/1999/xlink" viewBox="0 0 53 66" fill="#fff" fill-rule="evenodd" stroke="#000" stroke-linecap="round" stroke-linejoin="round" width="300" height="300" font-family="Roboto" font-size="14px" text-anchor="middle"><defs><style type="text/css"></style></defs><use xlink:href="#A" x=".5" y=".5"></use><symbol id="A" overflow="visible"><g stroke="none" fill-rule="nonzero"><path d="M32.34 32h19.335L41.22 57.9c-1.5 3.683-5.033 6.1-8.966 6.1H12.917l10.455-25.838c1.5-3.683 5.033-6.17 8.967-6.17" fill="#a9caff"></path><path d="M18.597 49.782h10.738c3.933 0 5.186-.157 8.465-3.053l13.85-14.92h-19.3c-3.934 0-7.477 2.485-8.967 6.168z" fill="#0408e0"></path><path d="M25.88 16.175h19.336L34.76 41.947c-1.5 3.683-5.033 5.88-8.966 5.88H6.46l10.455-25.63c1.5-3.683 5.033-6.022 8.967-6.022" fill="#0384ff"></path><path d="M12.034 34.057H22.9c3.933 0 5.187-.533 8.465-3.428L45.17 16.085H25.88c-3.933 0-7.477 2.333-8.967 6.016z" fill="#0408e0"></path><path d="M19.42 0h19.336L28.3 25.984c-1.5 3.683-5.033 6-8.966 6H0l10.455-25.76C11.945 2.552 15.487 0 19.42 0" fill="#004eff"></path></g></symbol></svg>